{
  "accessors": [
    {
      "bufferView": 2,
      "componentType": 5126,
      "count": 198,
      "max": [
        1.0,
        0.06565167009830475,
        1.0000001192092896
      ],
      "min": [
        -1.0,
        -4.6050896644592285,
        -0.9999999403953552
      ],
      "type": "VEC3"
    },
    {
      "bufferView": 2,
      "byteOffset": 2376,
      "componentType": 5126,
      "count": 198,
      "max": [
        0.7278809547424316,
        0.7298503518104553,
        0.7278809547424316
      ],
      "min": [
        -0.7278809547424316,
        -0.7298598289489746,
        -0.7278809547424316
      ],
      "type": "VEC3"
    },
    {
      "bufferView": 1,
      "componentType": 5126,
      "count": 198,
      "max": [
        1.0,
        1.0
      ],
      "min": [
        0.0,
        0.5
      ],
      "type": "VEC2"
    },
    {
      "bufferView": 0,
      "componentType": 5125,
      "count": 768,
      "type": "SCALAR"
    },
    {
      "bufferView": 2,
      "byteOffset": 4752,
      "componentType": 5126,
      "count": 16438,
      "max": [
        5.6217169761657715,
        3.725836753845215,
        7.396675109863281
      ],
      "min": [
        -5.763676166534424,
        -7.649080276489258,
        -19.398059844970703
      ],
      "type": "VEC3"
    },
    {
      "bufferView": 2,
      "byteOffset": 202008,
      "componentType": 5126,
      "count": 16438,
      "max": [
        1.0,
        1.0,
        1.0
      ],
      "min": [
        -1.0,
        -1.0,
        -1.0
      ],
      "type": "VEC3"
    },
    {
      "bufferView": 3,
      "componentType": 5126,
      "count": 16438,
      "max": [
        1.0,
        1.0,
        1.0,
        1.0
      ],
      "min": [
        -1.0,
        -1.0,
        -1.0,
        -1.0
      ],
      "type": "VEC4"
    },
    {
      "bufferView": 1,
      "byteOffset": 1584,
      "componentType": 5126,
      "count": 16438,
      "max": [
        0.9984836578369141,
        0.9979025721549988
      ],
      "min": [
        0.001479988801293075,
        0.001480019185692072
      ],
      "type": "VEC2"
    },
    {
      "bufferView": 1,
      "byteOffset": 133088,
      "componentType": 5126,
      "count": 16438,
      "max": [
        0.9984836578369141,
        0.9979025721549988
      ],
      "min": [
        0.001479988801293075,
        0.001480019185692072
      ],
      "type": "VEC2"
    },
    {
      "bufferView": 1,
      "byteOffset": 264592,
      "componentType": 5126,
      "count": 16438,
      "max": [
        0.9984836578369141,
        0.9979025721549988
      ],
      "min": [
        0.001479988801293075,
        0.001480019185692072
      ],
      "type": "VEC2"
    },
    {
      "bufferView": 1,
      "byteOffset": 396096,
      "componentType": 5126,
      "count": 16438,
      "max": [
        0.9984836578369141,
        0.9979025721549988
      ],
      "min": [
        0.001479988801293075,
        0.001480019185692072
      ],
      "type": "VEC2"
    },
    {
      "bufferView": 0,
      "byteOffset": 3072,
      "componentType": 5125,
      "count": 53187,
      "type": "SCALAR"
    }
  ],
  "asset": {
    "extras": {
      "author": "Sam54123 (https://sketchfab.com/Sam54123)",
      "license": "CC-BY-4.0 (http://creativecommons.org/licenses/by/4.0/)",
      "source": "https://sketchfab.com/3d-models/hd-portal-gun-0dca649f7ffc4e4f9cd1d9d239e7c42d",
      "title": "HD Portal Gun"
    },
    "generator": "Sketchfab-12.67.0",
    "version": "2.0"
  },
  "bufferViews": [
    {
      "buffer": 0,
      "byteLength": 215820,
      "name": "floatBufferViews",
      "target": 34963
    },
    {
      "buffer": 0,
      "byteLength": 527600,
      "byteOffset": 215820,
      "byteStride": 8,
      "name": "floatBufferViews",
      "target": 34962
    },
    {
      "buffer": 0,
      "byteLength": 399264,
      "byteOffset": 743420,
      "byteStride": 12,
      "name": "floatBufferViews",
      "target": 34962
    },
    {
      "buffer": 0,
      "byteLength": 263008,
      "byteOffset": 1142684,
      "byteStride": 16,
      "name": "floatBufferViews",
      "target": 34962
    }
  ],
  "buffers": [
    {
      "byteLength": 1405692,
      "uri": "scene.bin"
    }
  ],
  "extensionsUsed": [
    "KHR_materials_transmission"
  ],
  "images": [
    {
      "uri": "textures/portalgun_baseColor.png"
    },
    {
      "uri": "textures/portalgun_metallicRoughness.png"
    },
    {
      "uri": "textures/portalgun_normal.png"
    }
  ],
  "materials": [
    {
      "alphaMode": "BLEND",
      "doubleSided": true,
      "extensions": {
        "KHR_materials_transmission": {
          "transmissionFactor": 1.0
        }
      },
      "name": "portalgun_glass",
      "pbrMetallicRoughness": {
        "baseColorFactor": [
          1.0,
          1.0,
          1.0,
          0.25
        ],
        "metallicFactor": 0.0,
        "roughnessFactor": 0.0
      }
    },
    {
      "doubleSided": true,
      "name": "portalgun",
      "normalTexture": {
        "index": 2,
        "texCoord": 2
      },
      "pbrMetallicRoughness": {
        "baseColorTexture": {
          "index": 0
        },
        "metallicRoughnessTexture": {
          "index": 1,
          "texCoord": 1
        }
      }
    }
  ],
  "meshes": [
    {
      "name": "Object_0",
      "primitives": [
        {
          "attributes": {
            "NORMAL": 1,
            "POSITION": 0,
            "TEXCOORD_0": 2
          },
          "indices": 3,
          "material": 0,
          "mode": 4
        }
      ]
    },
    {
      "name": "Object_1",
      "primitives": [
        {
          "attributes": {
            "NORMAL": 5,
            "POSITION": 4,
            "TANGENT": 6,
            "TEXCOORD_0": 7,
            "TEXCOORD_1": 8,
            "TEXCOORD_2": 9,
            "TEXCOORD_3": 10
          },
          "indices": 11,
          "material": 1,
          "mode": 4
        }
      ]
    }
  ],
  "nodes": [
    {
      "children": [
        1
      ],
      "matrix": [
        1.0,
        0.0,
        0.0,
        0.0,
        0.0,
        2.220446049250313e-16,
        -1.0,
        0.0,
        0.0,
        1.0,
        2.220446049250313e-16,
        0.0,
        0.0,
        0.0,
        0.0,
        1.0
      ],
      "name": "Sketchfab_model"
    },
    {
      "children": [
        2
      ],
      "name": "root"
    },
    {
      "children": [
        3,
        5
      ],
      "matrix": [
        1.0,
        0.0,
        0.0,
        0.0,
        0.0,
        2.220446049250313e-16,
        1.0,
        0.0,
        0.0,
        -1.0,
        2.220446049250313e-16,
        0.0,
        0.0,
        0.0,
        0.0,
        1.0
      ],
      "name": "GLTF_SceneRootNode"
    },
    {
      "children": [
        4
      ],
      "matrix": [
        0.024417966604232788,
        0.0,
        0.0,
        0.0,
        0.0,
        0.0,
        0.024417966604232788,
        0.0,
        0.0,
        -0.024417966604232788,
        0.0,
        0.0,
        0.0,
        0.012096185237169266,
        0.18180032074451447,
        1.0
      ],
      "name": "portal_gun_glass_0"
    },
    {
      "mesh": 0,
      "name": "Object_4"
    },
    {
      "children": [
        6
      ],
      "matrix": [
        0.019050003960728645,
        0.0,
        0.0,
        0.0,
        0.0,
        0.019050000235438347,
        0.0,
        0.0,
        0.0,
        0.0,
        0.019050003960728645,
        0.0,
        0.002800777554512024,
        0.06055861711502075,
        0.22812999784946442,
        1.0
      ],
      "name": "portal_gun_1"
    },
    {
      "mesh": 1,
      "name": "Object_6"
    }
  ],
  "samplers": [
    {
      "magFilter": 9729,
      "minFilter": 9987,
      "wrapS": 10497,
      "wrapT": 10497
    }
  ],
  "scene": 0,
  "scenes": [
    {
      "name": "Sketchfab_Scene",
      "nodes": [
        0
      ]
    }
  ],
  "textures": [
    {
      "sampler": 0,
      "source": 0
    },
    {
      "sampler": 0,
      "source": 1
    },
    {
      "sampler": 0,
      "source": 2
    }
  ]
}
